<svg width="189" height="270" viewBox="0 0 189 270" fill="none" xmlns="http://www.w3.org/2000/svg">
<path d="M90 245C40.8439 245 1 205.079 1 155.828V90.1722C1 40.921 40.8439 1 90 1C139.156 1 179 40.921 179 90.1722V155.828C179 205.079 139.156 245 90 245Z" stroke="white" stroke-width="0.6" stroke-miterlimit="10"/>
<path d="M94.1543 159.497C95.9409 159.459 98.4879 157.767 101.035 156.844C109.55 153.728 117.305 165.19 123.691 172.075C124.147 172.537 124.908 172.229 124.908 171.575C124.831 166.959 124.147 162.344 122.817 157.959C121.714 154.343 119.852 150.497 116.354 149.151C113.883 148.228 111.147 148.728 108.638 149.497C103.126 151.189 97.9937 154.036 93.6601 157.844C92.9759 158.382 93.318 159.459 94.1543 159.497ZM94.1543 159.497C98.1458 159.767 101.947 162.19 104.152 165.575C106.813 169.69 107.345 174.96 106.281 179.768C104.38 188.23 97.4995 195.346 89.1745 197.423C87.5779 192.461 89.8587 187.153 91.1132 182.114C92.2916 177.422 92.1396 171.498 88.4902 168.69C87.958 168.267 87.1978 168.344 86.7796 168.883C82.1419 174.46 82.294 182.806 82.294 190.23C82.294 191.461 82.256 192.807 81.4957 193.807C80.5453 195.038 78.8347 195.269 77.3142 195.461C67.8487 196.73 58.6874 200.384 50.9325 206C48.9178 204.269 50.2863 200.846 52.301 199.153C54.7719 197.038 58.1932 195.692 58.3452 191.884C58.4213 189.768 56.8627 188.384 54.886 189.114C53.4795 189.614 53.2514 190.999 53.0993 192.23C52.6432 195.884 52.339 199.577 52.149 203.269C52.111 203.731 51.4647 203.769 51.4267 203.308C50.4384 197.192 49.9062 191.038 49.7921 184.845C49.7541 182.73 49.7921 180.537 50.8185 178.691C51.6928 177.152 53.2134 176.075 54.7339 175.191C62.9829 170.46 74.121 169.729 79.7851 162.267C80.0892 161.844 79.8231 161.267 79.3289 161.228C69.3312 160.382 58.9915 164.652 52.4531 172.383C49.2599 169.19 50.5904 163.267 54.0877 160.421C57.585 157.574 62.4507 157.19 66.9364 157.536C71.1939 157.882 76.3638 158.421 79.2909 155.651C79.7851 155.19 79.557 154.382 78.9107 154.228C68.799 151.92 57.9651 152.92 48.4236 156.997C46.3709 154.959 46.675 151.343 48.4616 149.074C50.2483 146.805 53.0993 145.689 55.9123 145.112C67.2405 142.689 80.5453 146.689 89.7067 139.458C78.4926 133.15 63.9713 133.419 53.0233 140.15C53.5175 135.227 58.4593 132.188 62.8689 129.996C69.9015 126.457 77.6943 122.842 85.2971 124.765C91.2652 126.265 97.4615 130.957 102.859 129.034C103.658 128.765 103.886 127.727 103.278 127.15C98.5639 122.572 89.5166 124.457 84.0806 120.149C83.0542 119.341 82.1419 118.149 82.332 116.88C82.446 115.918 83.2063 115.11 84.0046 114.534C87.3498 112.149 92.0635 112.764 95.5608 114.88C99.0581 116.995 101.643 120.342 104.114 123.649C110.234 131.765 116.316 139.881 122.437 147.958C124.946 151.305 127.378 156.305 124.413 159.19C123.007 160.536 120.954 160.844 119.129 160.19C115.822 158.997 114.112 155.959 112.515 153.074C111.413 151.074 110.272 148.882 110.576 146.574C110.88 144.304 113.503 142.266 115.442 143.42C101.681 151.189 87.9961 150.035 78.0364 159.998C68.0768 169.96 61.0062 182.46 54.0877 194.769C53.4795 195.846 52.8712 197.076 52.7952 198.269C52.7192 199.153 53.7836 199.654 54.3918 199C59.9038 193.192 63.249 185.614 68.0008 179.114C77.8844 165.575 93.242 157.42 107.763 149.228C110.918 147.458 114.15 145.535 116.24 142.574C118.179 139.766 119.472 135.727 122.969 135.381C124.869 135.188 126.694 136.227 127.683 137.842C129.735 141.227 128.937 144.997 128.291 148.574" stroke="white" stroke-width="0.6" stroke-miterlimit="10"/>
<path d="M140.477 184C124.031 167.782 125.736 139.21 126.077 119.971C126.153 116.414 126.191 112.665 124.41 109.605C122.023 105.551 117.172 103.906 112.814 102.223C104.478 98.972 96.6715 94.3438 89.7748 88.6064C87.8043 86.9617 85.758 84.8198 86.0233 82.2571C86.3643 79.3119 89.7748 77.2847 89.7748 74.3012C89.7748 71.509 86.857 68.5639 89.0548 66.4219C89.4717 66.0012 90.0401 65.7717 90.6085 65.6187C101.446 63.0177 113.155 64.3182 123.159 69.2523C125.774 61.9467 133.163 56.9743 140.818 56.1328C148.473 55.3296 156.241 58.2366 162.304 63.0177C158.515 65.1597 153.816 64.2417 149.723 62.903C145.631 61.5642 141.462 59.69 137.142 60.1108C132.822 60.5315 128.465 64.3182 129.26 68.6021C129.45 69.6348 129.98 70.6676 130.852 71.2795C132.216 72.2358 134.111 71.968 135.74 71.662C140.553 70.7823 145.365 69.8643 150.178 68.9846C154.801 68.1431 159.917 67.3399 163.895 69.8643C170.944 74.3012 169.39 84.9728 166.927 92.9669C162.114 81.6068 147.866 75.334 136.347 79.5414C138.355 85.623 145.555 87.765 151.353 90.3277C157.188 92.8904 163.213 99.2397 160.144 104.862C155.672 103.562 150.557 107.961 151.125 112.627C141.273 110.408 133.277 101.458 132.14 91.3221C131.875 88.8742 131.837 86.1202 129.526 84.6285C127.366 83.2515 124.524 83.9018 122.856 85.8907C119.673 89.7157 120.81 94.6116 121.985 98.972C122.856 102.147 123.69 105.513 122.97 108.649C122.78 109.414 122.06 109.911 121.303 109.797C117.475 109.146 114.065 106.201 112.928 102.453C111.715 98.2835 113.421 93.3876 116.983 90.9014C118.915 89.5627 121.492 88.6447 121.871 86.082C122.364 82.8308 119.901 80.6889 116.717 81.3391C111.488 82.3718 110.124 87.6885 109.669 92.3166C109.328 95.759 109.139 99.5075 107.244 102.3C106.865 102.873 106.145 103.065 105.539 102.835C101.901 101.458 98.7178 98.8572 96.5957 95.5678C95.4968 93.8466 94.6631 91.6664 95.4589 89.7922C96.141 88.071 97.922 87.1147 99.5515 86.3115C103.53 84.3225 107.509 82.3336 111.45 80.3064C111.564 75.7164 104.478 74.7602 100.916 77.5907C97.3536 80.4594 95.5726 85.1258 91.8969 87.8032C89.1306 84.2843 91.2527 78.6234 95.08 76.3667C98.9452 74.11 103.72 74.3777 108.116 75.0662C127.555 78.1644 147.222 90.9779 151.049 110.447" stroke="white" stroke-width="0.6" stroke-miterlimit="10"/>
<path d="M72.5 106C92.1061 106 108 90.33 108 71C108 51.67 92.1061 36 72.5 36C52.8939 36 37 51.67 37 71C37 90.33 52.8939 106 72.5 106Z" stroke="white" stroke-width="0.6" stroke-miterlimit="10"/>
<path d="M161.815 269C146.778 254.309 148.351 228.417 148.658 210.964C148.696 207.742 148.773 204.328 147.124 201.567C144.937 197.884 140.488 196.427 136.498 194.892C128.865 191.939 121.73 187.758 115.44 182.541C113.637 181.045 111.757 179.089 112.026 176.787C112.333 174.102 115.44 172.299 115.478 169.576C115.478 167.044 112.793 164.398 114.826 162.441C115.209 162.058 115.708 161.828 116.245 161.712C126.142 159.334 136.882 160.562 146.011 165.011C148.428 158.375 155.141 153.887 162.16 153.12C169.18 152.391 176.238 155.038 181.838 159.334C178.386 161.252 174.09 160.447 170.331 159.219C166.571 157.992 162.774 156.304 158.823 156.688C154.872 157.071 150.883 160.485 151.612 164.359C151.803 165.318 152.264 166.239 153.069 166.776C154.335 167.658 156.023 167.428 157.557 167.121C161.968 166.315 166.38 165.51 170.791 164.704C175.01 163.937 179.69 163.247 183.334 165.51C189.778 169.538 188.359 179.204 186.096 186.453C181.685 176.135 168.681 170.458 158.133 174.294C159.974 179.818 166.533 181.735 171.865 184.075C177.197 186.377 182.72 192.169 179.92 197.27C175.816 196.081 171.136 200.071 171.673 204.29C162.659 202.295 155.332 194.163 154.297 184.996C154.028 182.771 154.028 180.278 151.918 178.935C149.924 177.669 147.315 178.283 145.819 180.048C142.904 183.538 143.94 187.949 145.014 191.9C145.781 194.777 146.587 197.846 145.896 200.684C145.743 201.375 145.091 201.835 144.362 201.72C140.871 201.145 137.726 198.46 136.729 195.046C135.616 191.248 137.189 186.799 140.411 184.574C142.175 183.346 144.515 182.541 144.899 180.201C145.359 177.248 143.096 175.33 140.181 175.905C135.386 176.864 134.159 181.659 133.737 185.84C133.43 188.947 133.238 192.361 131.512 194.892C131.167 195.391 130.514 195.583 129.939 195.353C126.602 194.087 123.687 191.747 121.769 188.755C120.771 187.182 120.004 185.226 120.733 183.5C121.385 181.966 122.996 181.083 124.492 180.316C128.136 178.513 131.742 176.71 135.386 174.869C135.463 170.727 129.019 169.844 125.758 172.414C122.498 174.984 120.848 179.242 117.511 181.659C114.979 178.475 116.897 173.335 120.426 171.302C123.955 169.269 128.328 169.499 132.356 170.113C150.154 172.951 168.144 184.536 171.635 202.18" stroke="white" stroke-width="0.6" stroke-miterlimit="10"/>
</svg>
