<svg width="185" height="62" viewBox="0 0 185 62" fill="none" xmlns="http://www.w3.org/2000/svg">
<path d="M63.1397 26.9374C63.4711 26.9374 63.8025 26.9374 64.134 26.9374H64.6495L64.4285 26.4616C64.3917 26.3518 64.3181 26.242 64.2812 26.1322C64.2076 25.9493 64.134 25.8029 64.0603 25.6565C62.6979 23.0945 59.126 16.1771 59.0892 16.1039L58.9787 15.9209H56.7693C56.6957 15.9209 55.3701 15.7379 54.9282 14.6765C55.1859 14.6399 55.4437 14.6033 55.7015 14.5301C56.1065 14.3837 56.5484 14.2739 56.9535 14.1641C58.0213 13.8713 59.0892 13.5785 60.0466 13.0295C62.1455 11.8217 63.4343 9.80875 63.4343 7.57617C63.4343 5.38018 62.2192 3.3306 60.1202 2.1228C58.5737 1.20781 56.8798 0.658814 55.4069 0.549015C52.7556 0.366016 50.0675 0.329416 47.4531 0.329416C46.4221 0.329416 45.391 0.329416 44.36 0.292816C44.2127 0.292816 44.1022 0.366016 44.0654 0.402615C44.0654 0.402615 44.0286 0.439215 43.9917 0.439215L43.8076 0.549015V26.9008H48.0054V14.7131C48.4473 14.7131 48.8524 14.7131 49.2574 14.7131C50.5094 14.7131 51.6509 14.7497 52.8293 14.6765C53.4184 14.6399 53.6762 14.8229 53.9708 15.4085C55.9224 19.1417 57.874 22.8017 59.5311 25.9127C59.6415 26.1322 60.0834 26.8276 60.5989 26.8642C61.1145 26.9008 61.63 26.9008 62.1455 26.9008C62.5137 26.9374 62.8451 26.9374 63.1397 26.9374ZM48.1159 13.6517C48.0791 13.6151 48.0423 13.5053 48.0423 13.2491C48.0423 11.8583 48.0423 10.4676 48.0423 9.07676V7.46637C48.0423 6.91737 48.0423 6.40498 48.0423 5.85598C48.0423 4.53839 48.0423 3.2208 48.0423 1.86661C48.0423 1.57381 48.0791 1.39081 48.1527 1.35421C48.1896 1.31761 48.3369 1.28101 48.4841 1.28101C48.521 1.28101 48.5578 1.28101 48.5946 1.28101C49.2574 1.31761 49.9571 1.31761 50.6199 1.35421C51.8719 1.35421 53.1607 1.39081 54.339 1.64701C57.4322 2.2692 59.2365 4.72139 59.0155 7.97877C58.7946 11.0897 56.622 13.2857 53.4184 13.5785C52.3874 13.6883 51.2827 13.6883 50.2517 13.6883C49.6625 13.6883 49.0365 13.6883 48.4473 13.7249C48.2632 13.6883 48.1527 13.6883 48.1159 13.6517Z" fill="white"/>
<path d="M112.888 13.8713C111.82 13.5053 110.678 13.2491 109.537 13.0295C109.537 13.0295 109.537 13.0295 109.5 13.0295C109.684 12.9563 109.868 12.9197 110.052 12.8465C111.047 12.5537 112.078 12.2243 112.998 11.7119C115.023 10.5773 116.018 8.67412 115.907 6.22194C115.797 3.91615 114.545 2.26916 112.188 1.24437C111.378 0.87837 110.31 0.475772 109.242 0.439173C106.628 0.329373 103.977 0.292774 101.436 0.256174C100.515 0.256174 99.5578 0.219574 98.6372 0.219574C98.3426 0.219574 98.0481 0.219574 97.7535 0.219574H96.9434V26.8276H97.2748C98.3426 26.8276 99.3737 26.8276 100.405 26.8276H100.589C103.498 26.8276 106.223 26.8642 109.021 26.791C110.236 26.7544 111.452 26.3884 112.593 25.9858C114.913 25.1806 116.349 23.8264 116.975 21.8866C118.153 18.5195 116.423 15.1157 112.888 13.8713ZM111.673 7.72253C111.415 10.6139 109.353 12.5171 106.407 12.5903C105.155 12.6269 103.94 12.6269 102.614 12.5903C102.135 12.5903 101.62 12.5903 101.104 12.5903V10.8701C101.104 7.68593 101.104 4.64815 101.141 1.57377C101.141 1.50057 101.288 1.31757 101.362 1.28097C101.841 1.28097 102.32 1.28097 102.835 1.28097C104.345 1.28097 105.891 1.24437 107.401 1.50057C110.421 1.97636 111.967 4.24555 111.673 7.72253ZM101.104 13.7615L103.166 13.6883C103.203 13.6883 106.996 13.7249 108.764 14.1275C111.636 14.7863 113.182 16.9091 113.109 20.0932C113.035 22.9114 111.194 25.0342 108.469 25.51C106.775 25.8028 105.081 25.876 103.24 25.9858C102.54 26.0224 101.841 26.059 101.104 26.0956V13.7615Z" fill="white"/>
<path d="M90.4991 17.8973C90.7201 13.9811 90.7201 9.99175 90.6833 6.11218C90.6833 4.42859 90.6464 2.745 90.6833 1.06141C90.6833 0.915012 90.6464 0.768613 90.5728 0.658814C90.5728 0.622214 90.536 0.585614 90.536 0.549014L90.4623 0.292816L89.689 0.366016L89.6522 0.988212C89.6522 1.24441 89.6154 1.46401 89.6154 1.72021C89.6154 3.111 89.6154 4.46519 89.6154 5.85598C89.6154 9.11336 89.6522 12.4805 89.5786 15.8111C89.5417 17.6045 89.2472 19.2881 88.8053 20.7887C87.8111 23.8265 85.2334 25.6199 81.6984 25.7662C78.3475 25.9126 75.7699 24.4487 74.4811 21.6305C73.8183 20.2397 73.5605 18.7025 73.5605 16.6529C73.5605 13.1027 73.5605 9.58916 73.5605 6.03898V0.366016H69.3259V0.695414C69.3259 2.379 69.3259 4.06259 69.289 5.70958C69.2522 9.40616 69.2154 13.2491 69.3627 16.9823C69.5836 22.6919 72.8241 26.3152 78.4212 27.157C79.1945 27.2668 79.9309 27.34 80.6306 27.34C83.1713 27.34 85.4176 26.6446 87.1114 25.2539C89.1367 23.6069 90.315 21.0449 90.4991 17.8973Z" fill="white"/>
<path d="M141.094 0.622196L140.137 0L131.668 13.1759C131.52 12.9563 131.373 12.7367 131.262 12.5537L129.642 9.95514C127.838 7.02716 126.034 4.09917 124.192 1.17119C123.972 0.805195 123.603 0.329398 123.161 0.329398C122.241 0.256198 121.32 0.292798 120.363 0.292798C119.995 0.292798 119.663 0.292798 119.295 0.292798H118.706L119.258 1.20779C119.405 1.42739 119.516 1.64699 119.626 1.82999C122.167 5.70956 127.101 13.3589 127.507 13.9811L127.985 15.6647C127.985 16.2503 128.022 22.3259 128.022 25.4368V26.9374H132.257V22.8749C132.257 20.3861 132.257 17.8241 132.294 15.2987C132.294 14.7497 132.478 14.1641 132.772 13.6883C133.766 12.0779 134.798 10.5041 135.792 8.96694C136.197 8.30815 136.639 7.68595 137.044 7.02716C137.964 5.59977 138.885 4.17237 139.805 2.74498L141.094 0.622196Z" fill="white"/>
<path d="M81.404 59.621C80.0784 57.1322 76.5066 50.3247 76.5066 50.3247L76.3961 50.1417L74.1499 50.1051C74.0762 50.1051 72.8242 49.9221 72.3824 48.8607C72.6401 48.8241 72.8979 48.7875 73.1557 48.7143C73.5607 48.5679 74.0026 48.4581 74.4445 48.3483C75.5123 48.0555 76.6538 47.7261 77.6112 47.1771C79.6733 45.9693 80.9253 43.9197 80.9253 41.7237C80.9253 39.5277 79.6733 37.5147 77.6112 36.3069C76.0647 35.392 74.3708 34.843 72.8611 34.7332C70.2098 34.5502 67.5217 34.5136 64.9073 34.5136C63.8762 34.5136 62.8452 34.5136 61.8141 34.477C61.63 34.477 61.5196 34.6234 61.4459 34.66L61.3354 34.7698V61.0484H65.4965V48.9339C65.9015 48.9339 66.3434 48.9339 66.7484 48.9339C68.0004 48.9339 69.1419 48.9705 70.3203 48.8973C70.9094 48.8607 71.204 49.0437 71.4986 49.5927C73.2661 53.033 77.5008 60.7556 77.5376 60.8288L77.6481 61.0118L82.1773 61.1216L81.9564 60.6458C81.9195 60.6458 81.5881 59.9138 81.404 59.621ZM65.5701 47.8725C65.4965 47.7993 65.4965 47.5065 65.4965 47.4333C65.4965 46.0425 65.4965 44.6517 65.4965 43.2609V41.6871V40.2963C65.4965 38.9055 65.4965 37.4415 65.5333 36.0508C65.5333 35.941 65.6806 35.7214 65.7542 35.6116C66.2697 35.6116 66.7853 35.6116 67.264 35.6116C68.8105 35.6116 70.3939 35.6116 71.8668 35.9409C74.96 36.5997 76.7275 39.0519 76.4697 42.3093C76.212 45.4203 74.0762 47.5431 70.9094 47.8359C69.8416 47.9457 68.7369 47.9457 67.6322 47.9457C67.043 47.9457 66.417 47.9457 65.8279 47.9823C65.6437 47.9091 65.5701 47.8725 65.5701 47.8725Z" fill="white"/>
<path d="M102.283 35.392C98.9687 34.3306 95.5073 34.3672 92.1933 34.4404C90.794 34.477 89.3211 34.477 87.885 34.4404H87.6272L87.5535 34.6966C87.5167 34.8064 87.5167 34.8796 87.4799 34.9162C87.4431 35.026 87.4431 35.0992 87.4431 35.1724C87.4431 43.4805 87.4062 60.0968 87.4062 60.0968V60.2432L88.5109 61.1582H88.6214C88.6582 61.1582 89.947 61.1582 91.6041 61.1582C93.4821 61.1582 95.8019 61.1582 97.3117 61.085C101.583 60.902 104.897 59.6942 107.475 57.3518C111.047 54.0945 112.299 49.8123 111.157 44.6151C110.237 40.0767 107.217 36.9658 102.283 35.392ZM106.112 42.1995C107.512 46.6281 107.328 50.8371 105.597 54.7167C104.382 57.4616 102.209 59.1818 99.3001 59.6576C97.1644 60.0236 92.9297 60.0968 92.0828 60.0968L91.6777 59.6942V59.3282V36.3436L91.7146 35.3188C92.451 35.3554 93.1875 35.392 93.8871 35.4286C95.7651 35.5384 97.5326 35.6116 99.3001 35.941C102.688 36.5998 105.008 38.7226 106.112 42.1995Z" fill="white"/>
<path d="M25.396 48.1653C23.4444 48.1653 21.4928 48.1653 19.5411 48.1653H16.0798L16.043 49.1169L16.3744 49.1535C16.4848 49.1535 16.5585 49.1901 16.6689 49.1901C16.8899 49.2267 17.1108 49.2267 17.3318 49.2267H18.2892C19.4675 49.2267 20.6458 49.2633 21.8242 49.2267C22.1188 49.2267 22.3029 49.2633 22.3765 49.3365C22.4502 49.4097 22.487 49.5927 22.487 49.8489C22.4502 51.7155 22.4133 53.9115 22.487 56.0343C22.5238 56.9493 22.2292 57.5714 21.5296 58.1204L21.4928 58.157C21.0141 58.523 20.5354 58.9256 20.0198 59.1818C15.7852 61.451 10.3722 60.2066 7.46318 56.3637C5.25379 53.4723 4.44369 49.9221 4.92239 45.5301C5.21697 42.7119 6.17437 40.4428 7.83141 38.6494C10.5931 35.6482 14.0913 34.6966 18.2155 35.8312C22.0819 36.8926 24.4386 39.601 25.2487 43.8465C25.3224 44.1759 25.3592 44.5053 25.396 44.8713L25.5065 45.6765L26.3902 45.4935V45.2373C26.3902 43.1511 25.8747 41.2845 24.8805 39.601C22.7448 36.0508 19.2834 34.2208 14.6437 34.111C8.89928 34.0378 4.73827 36.1606 2.16066 40.4794C-0.637899 45.0909 -0.711545 49.9953 1.90289 54.6069C4.25957 58.706 8.23646 61.0484 13.7599 61.4876C16.5585 61.7072 19.0256 61.1582 21.0877 59.7674C21.6032 59.438 22.0819 59.0354 22.5238 58.6328C22.6343 58.523 22.7816 58.4132 22.9289 58.3034L26.2798 62L26.4639 61.4144C26.5007 61.268 26.5375 61.1948 26.5744 61.1216C26.6112 60.9752 26.648 60.902 26.648 60.7922V57.242C26.648 54.5703 26.648 51.9351 26.6848 49.2633C26.6848 48.8973 26.6112 48.6411 26.4271 48.4581C26.0957 48.1653 25.6906 48.1653 25.396 48.1653Z" fill="white"/>
<path d="M159.432 54.4238C159.358 54.314 159.285 54.2408 159.211 54.131L155.934 49.9953C152.03 45.0909 148.127 40.1499 144.224 35.2456C143.929 34.9162 143.451 34.477 142.972 34.4404C142.051 34.3672 141.168 34.4038 140.21 34.4038C139.842 34.4038 139.474 34.4038 139.106 34.4038H138.774V60.536V60.8654H139.732V36.2338L159.616 61.4144L159.837 61.6706L160.463 61.1948V34.5868H159.506V54.4238H159.432Z" fill="white"/>
<path d="M181.231 47.6529C180.237 47.1039 179.169 46.7013 178.138 46.2987C177.88 46.1889 177.623 46.0791 177.365 46.0059C176.629 45.7131 175.892 45.4569 175.156 45.2007C173.683 44.6883 172.173 44.1393 170.81 43.3707C169.448 42.6021 168.638 41.2113 168.712 39.7108C168.748 38.137 169.706 36.7462 171.216 35.9776C173.535 34.843 176.039 34.8064 178.654 35.8678C180.937 36.7828 182.226 38.4664 182.447 40.8819C182.447 41.0283 182.483 41.1747 182.52 41.3211C182.52 41.3577 182.557 41.4309 182.557 41.4675L182.631 41.7969L183.514 41.5773V41.3211C183.478 38.7592 182.336 36.7828 180.274 35.575C176.629 33.4522 172.762 33.4888 169.153 35.575C167.018 36.8194 165.692 39.3448 165.766 42.0165C165.839 44.6151 167.239 46.7745 169.558 47.9457C170.553 48.4581 171.584 48.8607 172.615 49.2267L172.799 49.2999C173.572 49.5927 174.345 49.8489 175.119 50.1417C176.592 50.6541 178.101 51.2031 179.538 51.8619C181.195 52.6305 182.005 54.1677 181.784 56.144C181.6 57.9008 180.605 59.072 178.764 59.804C176.96 60.536 174.935 60.6092 172.615 60.0968C169.411 59.4014 167.496 57.7178 166.723 55.0461C166.613 54.6801 166.539 54.3141 166.502 53.9115C166.465 53.7285 166.429 53.5455 166.392 53.3625L166.244 52.6671L165.803 53.1795C165.582 53.4357 165.471 53.7285 165.508 54.0579C165.729 56.5466 166.907 58.4864 168.932 59.6576C171.031 60.902 173.167 61.5242 175.34 61.5242C177.181 61.5242 179.022 61.085 180.863 60.17C183.33 58.9622 184.693 56.7296 184.766 53.7651C184.877 51.0933 183.662 48.9705 181.231 47.6529Z" fill="white"/>
<path d="M31.1404 60.7922L32.061 61.1948L32.3924 60.4994C32.5397 60.2066 32.6869 59.8772 32.8342 59.5844L33.4971 58.0838C34.2335 56.4734 34.97 54.8264 35.7064 53.1794C35.9274 52.667 36.1483 52.5572 36.7007 52.5572C40.2725 52.5938 43.8075 52.5938 47.2321 52.5572C47.7844 52.5572 48.0054 52.7036 48.2263 53.1794C49.331 55.595 50.4725 58.0106 51.5772 60.2432C51.6508 60.3896 52.0191 61.085 52.4978 61.1216C53.3447 61.1582 54.1916 61.1582 55.0754 61.1582C55.4068 61.1582 55.7382 61.1582 56.1064 61.1582H56.6588L43.5498 33.562L31.1404 60.7922ZM47.3794 51.4592H36.5534L41.8559 39.8205L47.3794 51.4592Z" fill="white"/>
<path d="M121.652 35.5018C124.413 35.5384 127.212 35.5384 129.9 35.5384H131.888C132.146 35.5384 132.367 35.5018 132.588 35.4652C132.699 35.4652 132.772 35.4286 132.883 35.4286L133.251 35.392L133.104 34.5502H116.791V61.085H133.177V60.17H120.989V48.1653H131.999V47.2137H120.952V47.0307C120.952 46.7745 120.915 46.5915 120.915 46.4085C120.915 45.4203 120.915 44.3955 120.915 43.4073C120.915 41.065 120.915 38.6494 120.878 36.2704C120.878 35.941 120.915 35.7214 120.989 35.6482C121.136 35.5018 121.357 35.4652 121.652 35.5018Z" fill="white"/>
</svg>
