<svg width="241" height="43" viewBox="0 0 241 43" fill="none" xmlns="http://www.w3.org/2000/svg">
<g clip-path="url(#clip0)">
<path d="M12.1 16.4999C12.1 16.5999 12.1 16.5999 12.1 16.6999C11.8 17.8999 10.9 19.3999 9.8 20.4999C8.4 21.6999 6.7 22.7999 5.6 23.1999C5.4 23.2999 5.1 23.0999 4.9 23.0999C4.7 23.0999 4.3 23.2999 4.1 23.2999C3.9 23.2999 3.8 23.1999 3.8 23.1999V23.0999C3.6 23.1999 3.5 23.3999 3.5 23.5999C3.3 23.9999 3.3 24.7999 3 25.3999C2.9 25.7999 2.6 26.3999 2.5 26.7999C2.4 27.3999 2.5 27.8999 2 28.7999L1.8 29.0999C1.7 29.0999 1.7 29.1999 1.5 29.1999C1.4 29.1999 1.3 28.9999 1.1 28.9999C0.9 28.9999 0.9 29.0999 0.8 29.0999C0.7 28.9999 0.8 28.7999 0.6 28.7999C0.4 28.7999 0.5 28.7999 0.4 28.7999C0.4 28.6999 0.5 28.7999 0.5 28.5999C0.5 28.3999 0.2 28.1999 0 27.7999C0.1 27.6999 0 27.5999 0 27.4999C0 26.9999 0.6 26.1999 0.7 25.6999C1.1 24.2999 1.6 22.5999 2 20.9999C2.7 18.1999 3.4 15.1999 4.2 12.3999C4.3 11.9999 4.3 11.4999 4.4 10.8999C3.5 10.4999 3.2 9.3999 3.3 8.6999C3.4 8.5999 3.6 8.4999 3.7 8.4999C3.9 8.3999 4.3 8.3999 4.7 8.3999C5.1 8.3999 5.3 8.3999 5.4 8.3999C5.6 8.3999 5.4 8.4999 5.5 8.4999C5.9 8.4999 6.6 8.8999 7.1 9.0999C7.2 9.1999 7.5 9.1999 7.6 9.2999C10.3 10.9999 12.4 13.1999 12.4 15.3999C12.4 15.5999 12.2 16.0999 12.1 16.4999ZM6.6 10.6999C6.5 10.6999 6.7 10.5999 6.6 10.6999C6.4 10.5999 6.2 10.6999 6.1 10.6999V10.9999C6.1 11.1999 6.3 11.8999 6.3 12.1999C6.3 13.0999 6.1 13.9999 6 14.6999C5.7 15.9999 5.3 17.5999 5 18.4999C4.9 19.0999 4.5 20.0999 4.5 20.6999C4.7 20.6999 5.2 20.5999 5.4 20.4999C5.2 20.0999 5.7 20.0999 5.9 19.8999C5.9 19.9999 5.9 19.9999 5.9 19.9999C5.8 20.0999 5.9 20.0999 6 20.0999C6.1 19.9999 6.6 19.5999 6.7 19.4999C6.7 19.4999 6.7 19.4999 6.6 19.4999C6.5 19.3999 6.6 19.3999 6.6 19.3999C8.5 18.4999 10.3 15.6999 10.3 13.6999C10.4 12.6999 7.8 10.6999 6.6 10.6999Z" fill="white"/>
<path d="M19.3 21.2999C19 21.2999 18.7 21.1999 18.2 21.2999C18.2 21.0999 18.1 20.8999 18.1 20.4999C17 20.8999 16.1 22.1999 15.5 23.1999C15.5 23.0999 15.5 23.0999 15.4 23.0999C15.3 23.2999 15.3 23.3999 15.3 23.3999H15.2C15.1 23.4999 15.1 23.4999 15.1 23.4999C15.1 23.5999 15.2 23.5999 15.2 23.6999C15.1 23.6999 15.1 23.7999 15 23.7999C14.9 23.7999 14.9 23.7999 14.9 23.8999C14.8 23.9999 15 24.0999 15 24.0999C14.8 24.3999 14.6 24.6999 14.4 25.0999C14.4 25.1999 14.5 25.2999 14.5 25.2999C14.4 25.4999 14.2 25.6999 14 25.8999C13.9 26.0999 13.9 26.3999 13.8 26.5999C13.4 27.2999 13.1 28.1999 13.3 28.9999C13.1 29.0999 13 29.1999 12.8 29.1999C12.7 29.1999 12.3 28.9999 12 28.8999C11.9 28.7999 12 28.3999 11.7 28.4999C11.5 27.8999 11.2 27.4999 11.2 27.0999C11.2 26.8999 11.6 25.4999 11.7 24.6999C11.9 23.6999 12.1 22.6999 12.2 21.6999C12.3 21.0999 12.4 20.2999 12.5 19.4999C12.6 18.9999 12.6 18.3999 12.7 17.8999H13C13.3 17.8999 13.8 18.2999 14 18.6999C14.1 19.0999 14.2 19.4999 14.3 19.8999C14.3 20.1999 14.2 20.3999 14.2 20.7999C14.5 20.0999 16 18.9999 16.8 18.9999C17.6 18.9999 18.8 19.4999 19.4 20.1999C19.5 20.2999 19.6 20.5999 19.7 20.7999C19.6 20.8999 19.2 21.0999 19.3 21.2999Z" fill="white"/>
<path d="M23 28.2999C22.9 28.3999 22.9 28.5999 22.8 28.6999C22.2 29.0999 21.6 29.2999 21.1 29.2999C20.3 29.2999 19.8 28.7999 19.3 28.3999C19.1 28.2999 19 27.5999 18.7 27.5999C18.6 27.2999 18.5 26.6999 18.5 26.4999C18.5 25.2999 19.6 23.0999 19.8 22.6999C19.9 22.5999 19.8 22.3999 19.9 22.2999C20.1 21.9999 20.4 21.6999 20.5 21.2999C20.6 21.1999 20.6 21.1999 20.7 21.1999C20.8 21.1999 20.8 20.9999 20.9 20.8999C21 20.6999 21.4 20.4999 21.6 20.2999C21.7 20.1999 21.7 19.8999 21.8 19.7999C21.7 19.7999 21.6 19.6999 21.4 19.8999C21.4 19.7999 21.4 19.7999 21.3 19.6999C21.2 19.6999 21.2 19.7999 21.2 19.8999C21.2 19.7999 21.1 19.6999 21 19.6999H21.1C21.1 19.6999 21.2 19.6999 21.2 19.5999C21.1 18.5999 22.9 18.1999 23.2 17.8999C23.3 18.1999 23.6 17.9999 23.8 18.0999C23.9 18.1999 24.4 18.6999 24.6 18.8999C24.6 18.8999 24.6 18.9999 24.7 18.9999C24.7 19.0999 24.8 19.1999 24.8 19.1999C24.9 19.1999 25 19.1999 25.1 19.2999C25.9 20.4999 26.5 21.4999 26.5 22.6999C26.5 24.5999 25 26.4999 23 28.2999ZM24 20.6999C23.7 21.2999 23.1 21.9999 22.8 22.3999C22.2 23.4999 21.1 25.6999 21.1 25.8999V26.0999C21.5 25.8999 22 25.2999 22.2 25.2999C22.4 25.2999 22.1 25.4999 22.3 25.4999C22.5 25.4999 23.6 23.6999 23.7 23.5999C23.9 23.3999 24.3 21.7999 24.3 21.6999C24.3 21.4999 24.1 20.9999 24 20.6999ZM23.7 20.4999V20.0999H23.6V20.4999H23.7Z" fill="white"/>
<path d="M30.4 22.4C30.2999 22.9 30.2999 23.3 30.2999 23.7C30.1999 24 30.3 24.9 30.2 25.5C30 27.1 29.4999 28.7 29.2999 30.4C29.1999 30.5 29.3 30.8 29.2 30.9C29 31.3 28.9 31.8 28.7999 32.3C28.7999 32.8 28.6 33.3 28.2 33.8C28.3 33.9 28.1 34.2 28 34.4C27.9 34.6 28.1 34.9 28 35.1C27.9 35.7 27.5999 36.3 27.2999 37C26.9 37.7 26.6 38.4 26.2 39.1C26 39.3 25 40.2 25.1 40.5C24.8 41.1 22.4 42.7 21.4 42.7C21.1999 42.7 20.5 42.5 20.2 42.4C18.3 41.8 17.4 39.4 17.2 37.9C17.3 36.3 17.2 36.3 17.2 36.2C17.3 35.9 17.4 35.5 17.4 35.2C17.4 35.4 17.3 35.6 17.4 35.8C17.6 35.3 17.5999 34.6 17.7999 34.1C17.9999 33.3 18.3999 32.6 18.7999 31.9C18.7999 32 18.8 32.1 18.9 32.1C18.9 32.1 18.9 32.2 18.9 32.3V34.5C19 34.5 19.1 34.6 19.1 34.7C19.1 34.8 19 35.1 19 35.3C19 35.6 19 35.9 18.9 36.3C18.8 36.7 18.7999 37 18.7999 37.1C18.7999 37.2 19 37.7 19.1 38C19.1 38.1 18.9 40.2 19.7 40.2C21.5 40.2 24.2 37.5 24.9 36.3C24.9999 36.2 25 35.9 25.1 35.7C25.9 34.4 25.9999 33.7 26.2999 32.7C26.4999 31.7 27.1 30.1 27.1 29C27.2 28.9 27.3 28.1 27.5 27.7C27.7 26.5 27.8 25.3 28 24.1C28.2 23 28.4 21.8 28.6 20.7C28.7 20.2 28.7 19.6 28.6 19C28.7 19 28.7 18.9 28.9 18.9C29 18.9 29.5999 19.1 29.7999 19.4C29.9999 19.6 30.2 19.9 30.2 20.2C30.3 20.6 30.4 21.3 30.4 21.5C30.5999 21.8 30.4 22.2 30.4 22.4ZM17.7 34.5L17.5 35L17.6 34.5H17.7ZM32.2 16.1C31.8 16.3 31.4 16.5 31.1 16.5C30.8 16.5 29.9999 15.5 29.7999 15.3C29.6999 14.6 29.7 14 29.5 13.4C29.6 13.3 29.7 13 29.9 13C30 13 30.4999 13.5 30.7999 13.7C30.9 13.8 31.3 14 31.5 14.2C31.7 14.4 32.4 15 32.4 15.3C32.4 15.4 32.3 15.8 32.2 16.1Z" fill="white"/>
<path d="M38.4001 26.9999C38.4001 27.0999 38.5001 27.1999 38.7001 27.2999C38.6001 27.3999 38.5001 27.6999 38.4001 27.8999C37.9001 27.7999 37.7001 28.3999 37.7001 28.7999C37.4001 28.8999 37.1001 28.9999 36.6001 28.9999C36.5001 29.0999 36.6001 29.0999 36.7001 29.0999C36.4001 29.0999 36.0001 29.3999 35.7001 29.3999V29.4999C35.7001 29.4999 35.7001 29.5999 35.6001 29.5999C35.3001 29.5999 34.5001 29.0999 34.4001 29.5999L34.1001 29.1999C33.3001 28.9999 33.1001 28.7999 32.4001 28.0999C31.9001 27.6999 32.2001 28.2999 31.6001 26.1999C31.6001 24.9999 31.9001 24.3999 32.0001 23.9999C32.1001 23.4999 32.5001 22.3999 32.9001 21.5999C33.1001 21.1999 33.4001 20.4999 33.8001 19.8999C34.0001 19.6999 34.3001 19.2999 34.5001 18.8999C34.9001 18.4999 35.0001 18.2999 35.5001 17.9999C35.7001 17.8999 36.3001 17.6999 36.2001 17.3999C36.2001 17.3999 36.1001 17.3999 36.1001 17.4999C36.1001 17.5999 36.1001 17.5999 36.2001 17.5999C36.4001 17.5999 36.1001 17.4999 36.4001 17.4999C36.5001 17.4999 36.9001 17.6999 37.2001 17.7999C37.3001 17.9999 37.2001 18.2999 37.4001 18.2999C37.6001 18.2999 37.4001 18.1999 37.6001 18.1999C37.7001 18.1999 37.8001 18.2999 37.9001 18.3999C37.9001 19.4999 38.4001 18.8999 38.4001 19.5999C38.4001 19.7999 38.1001 21.0999 37.9001 21.7999C37.7001 22.1999 37.1001 22.9999 36.7001 23.5999C35.9001 24.4999 34.4001 26.0999 34.4001 26.2999C34.4001 26.4999 34.9001 26.7999 35.2001 26.9999C35.4001 27.0999 35.8001 27.0999 36.0001 27.0999C36.3001 27.0999 36.5001 26.7999 36.9001 26.9999C37.6001 26.7999 38.3001 26.4999 38.8001 26.3999C38.9001 26.4999 39.0001 26.4999 39.1001 26.4999C38.8001 26.6999 38.7001 26.8999 38.4001 26.9999Z" fill="white"/>
<path d="M47.6 24.5999C47.4 24.5999 47.5001 24.4999 47.4001 24.5999C47.4001 24.6999 47.3001 24.6999 47.4001 24.6999C47.6001 24.6999 47.5 24.6999 47.6 24.6999C47.5 24.7999 47.4001 25.0999 47.4001 25.1999C47.1001 25.4999 46.6 25.7999 46.3 26.0999C46.3 26.1999 46.4001 26.1999 46.4001 26.1999V26.4999C45.8001 26.7999 45.1 27.2999 44.1 27.8999C44 27.9999 43.9 28.1999 43.8 28.3999C43.5 28.5999 42.1 28.9999 41.5 28.9999C40.1 28.9999 38.9 27.4999 38.8 26.2999C38.8 26.0999 38.8 25.7999 38.8 25.5999C38.8 25.1999 38.9 24.6999 39 23.9999C39.1 23.2999 39.3 22.6999 39.6 22.1999C39.7 22.1999 39.7001 21.9999 39.7001 21.7999C39.9001 21.2999 40.2 20.6999 40.6 20.2999C40.8 20.0999 41.1001 19.8999 41.2001 19.5999V19.4999C41.1001 19.5999 41.1 19.5999 41.1 19.5999C41.4 19.1999 41.8001 18.3999 42.2001 17.9999C42.3001 17.7999 42.6 17.7999 42.8 17.6999C43 17.5999 43 17.3999 43.3 17.3999C43.4 17.3999 44.1001 17.4999 44.4001 17.6999C44.7001 17.8999 45.3 18.2999 45.5 18.6999C45.6 18.9999 45.8 19.4999 45.8 19.6999C45.8 19.9999 45.5001 21.5999 45.2001 21.6999C45.1001 21.9999 45 21.9999 44.8 21.9999C44.4 21.9999 44.2 21.6999 44 21.2999C43.9 20.9999 43.6 20.7999 43.8 20.4999H43.7001C42.7001 21.7999 41.9 23.1999 41.5 24.1999C41.2 24.7999 40.8 26.3999 40.8 26.4999V26.8999C41 26.9999 41.4 27.0999 41.6 27.0999C41.7 27.0999 42.4 26.7999 42.8 26.5999C43.8 26.1999 45 25.7999 46.3 25.0999C46.6 24.8999 47.5 24.3999 48.1 24.0999C47.9 24.1999 47.8 24.5999 47.6 24.5999Z" fill="white"/>
<path d="M57.0999 19.7999C57.0999 19.8999 57.2 19.8999 57.2 19.8999C57.1 20.0999 56.7999 20.0999 57.0999 20.2999C56.7999 20.3999 56.4 20.5999 56.2 20.6999C56.2 20.7999 56.3 20.7999 56.4 20.8999C56.2 21.3999 55.6 21.4999 55 21.5999C54.9 21.7999 54.6 22.1999 54.4 22.1999C54.3 22.1999 54.3999 22.0999 54.2999 22.0999C54.1999 22.0999 54.2 22.1999 54.2 22.2999C53.7 22.3999 52.9999 22.6999 52.2999 22.8999C52.1999 22.8999 52.2999 22.9999 52.2999 23.0999C52.1999 23.0999 52.2999 22.9999 52.0999 22.9999C51.9999 22.9999 51.3 23.1999 50.9 23.3999L50.7 23.6999C50.5 23.6999 50.1 23.9999 49.9 24.0999C49.7 24.9999 49.4 26.6999 49.4 26.8999C49.4 27.0999 49.7 28.0999 49.7 28.1999C49.7 28.3999 49.4 28.5999 49.4 28.7999C49.3 28.7999 49.1 28.8999 49 28.8999C48.8 28.8999 48.8 28.5999 48.7 28.4999C47.9 27.6999 48 27.0999 47.9 26.3999C47.8 25.9999 48 24.8999 48 23.5999C48 23.3999 47.2 22.4999 47.2 22.3999C47.2 22.2999 47.2999 21.6999 47.2999 21.2999C47.3999 21.1999 47.4 21.0999 47.4 21.0999C47.5 21.0999 47.6 20.9999 47.7 20.9999C47.9 20.9999 47.7 21.0999 47.9 21.0999C48 21.0999 48.2999 20.8999 48.2999 20.6999C48.5999 19.8999 48.9 17.3999 49.2 16.1999C49.5 14.9999 49.9 13.7999 50.2 12.5999C50.3 11.9999 50.5999 11.2999 50.7999 10.5999C50.9999 10.0999 50.9999 9.19985 51.5999 8.79985C51.6999 8.69985 51.9999 8.59985 52.0999 8.59985C52.2999 8.59985 52.5 8.99985 52.7 8.99985C52.9 8.99985 52.9 8.99985 53 8.99985C52.9 8.99985 52.9 8.99985 52.9 8.99985V9.09985C52.9 9.29985 53.4 10.1999 53.4 10.3999C53.4 10.4999 53.2999 11.1999 53.0999 11.4999C53.1999 11.6999 53.2 11.7999 53.2 11.9999C52.7 13.7999 52.0999 15.5999 51.5999 17.2999C51.4999 17.9999 51.2999 18.8999 51.0999 19.6999V19.9999C51.2999 20.0999 51.3999 20.0999 51.5999 20.0999C51.6999 19.9999 51.9 19.9999 52.2 19.9999C52.4 19.9999 52.2 20.0999 52.4 20.0999C52.6 20.0999 52.7999 19.9999 53.0999 19.8999C54.2999 19.6999 55.7 19.5999 57.4 19.3999C57.3 19.5999 57.1999 19.6999 57.0999 19.7999Z" fill="white"/>
<path d="M67.1999 8.69995C67.2999 8.99995 67.3999 9.29995 67.2999 9.79995L67.0999 10.6999C66.6999 12.6999 65.7999 16.1 64.9999 18.7C64.8999 19.4 64.4999 20.2 64.1999 21.0999L64.2999 21.2C64.5999 20.9 64.9999 20.8 65.3999 20.7C66.7999 20.5999 68.3999 21.4999 68.5999 22.9999C68.5999 23.0999 68.4999 23.9999 68.2999 24.5999C68.1999 24.9999 67.7999 25.7999 67.5999 26.2999C67.2999 26.6999 66.0999 28.9999 65.6999 29.0999C65.4999 29.0999 65.6999 28.9999 65.4999 28.9999C65.3999 28.9999 64.9999 29.3999 64.7999 29.4999H64.8999C64.8999 29.3999 64.8999 29.3999 64.8999 29.3999C64.6999 29.3999 64.4999 29.1999 64.3999 29.2999C64.1999 29.2999 64.3999 29.3999 64.1999 29.3999C63.9999 29.3999 63.8999 29.1999 63.7999 29.0999C63.6999 28.9999 62.8999 28.0999 62.8999 27.6999C62.8999 27.4999 63.0999 26.8999 63.1999 26.7999C63.6999 27.0999 63.2999 27.4999 63.7999 27.4999C64.1999 27.3999 64.9999 25.8999 65.1999 25.2999C65.5999 24.5999 65.7999 23.4999 66.0999 22.7999L65.9999 22.3999C65.7999 22.3999 65.7999 22.7999 65.4999 22.8999C64.9999 23.1999 64.7999 23.4999 64.6999 23.7999C64.5999 23.7999 64.5999 23.7999 64.4999 23.7999C64.5999 24.1999 63.5999 25.2999 63.2999 25.7999C63.3999 25.8999 63.4999 25.8999 63.4999 25.7999C63.2999 25.9999 62.9999 26.3999 62.7999 26.3999C62.5999 26.3999 62.0999 26.2999 61.8999 26.3999C61.4999 26.3999 60.5999 24.5999 60.6999 24.5999C60.5999 24.0999 61.4999 21.4999 61.4999 21.3999C62.5999 17.7999 64.0999 12.6999 64.9999 9.49995C65.1999 8.99995 65.2999 8.19995 65.5999 7.59995C65.7999 7.49995 66.0999 7.49995 66.2999 7.49995C66.4999 7.39995 67.1999 8.39995 67.1999 8.39995C67.3999 8.59995 67.2999 8.59995 67.1999 8.69995Z" fill="white"/>
<path d="M79.5001 21.5C79.6001 21.8 79.5001 22.0999 79.5001 22.4C79.4001 22.8 79.2001 23.2 79.1001 23.7C79.1001 23.8 79.2001 24 79.1001 24.1C78.9001 25.3 78.5001 26.6999 78.2001 27.7999L78.0001 28C77.6001 29.6 77.2001 31.1 77.0001 32.7C76.9001 32.9 77.0001 33.2999 77.0001 33.5999C76.9001 33.7999 76.8001 33.9999 76.8001 34.0999C76.8001 34.8999 76.6001 36.2 76.6001 36.4V36.7999C76.7001 36.9 76.6001 36.9 76.8001 36.9C77.2001 36.8 77.6001 36.5 78.0001 36.2999L78.1001 37.2C77.5001 37.4 77.9001 37.9999 77.6001 38.0999C77.4001 38.0999 77.5001 38 77.4001 38C77.2001 38 77.0001 38.2999 76.8001 38.2999C76.7001 38.2999 76.2001 38.1 76.0001 38C75.8001 37.9 75.6001 37.6 75.5001 37.4C75.2001 37 74.7001 36.2999 74.6001 35.5999C74.3001 31.9999 76.5001 23.0999 76.8001 21.9V21.7999C75.3001 23.5999 74.1001 25.0999 72.4001 26.9C72.3001 27 72.0001 27.2 71.7001 27.4C71.3001 27.5999 71.1001 27.6999 70.9001 27.7999C69.8001 27.9 69.3001 26.5999 69.2001 25.7999C69.1001 24.4999 71.0001 20.2 71.2001 19.7C71.5001 19.2 71.9001 18.6 72.2001 18C72.8001 17.8 73.6001 18.4 73.6001 18.9C73.6001 19.1 73.6001 19.2 73.6001 19.2C73.4001 19.5 73.1001 20.1 72.9001 20.5C72.5001 21.4 72.0001 22.5999 71.5001 23.7999C71.4001 23.8999 71.3001 24 71.2001 24.2C71.1001 24.4 71.1001 24.5999 71.2001 24.7999L77.2001 17.7C79.0001 18.3 79.4001 18.6 79.5001 19.9C79.7001 20.1 79.7001 21 79.5001 21.5Z" fill="white"/>
<path d="M215 0H207.7V15.1L195 0H188.5V27.2H195.8V12L208.5 27.2H215V6.6H222V27.2H230.2V6.6H237.5L240.4 0H215Z" fill="white"/>
<path d="M176.5 0H148.8C148.7 0 148.6 0 148.5 0C146.4 0 144.7 0.3 143.2 1C141.8 1.7 140.7 2.6 140 3.8C139.3 5 139 6.2 139 7.7C139 9.2 139.3 10.5 140 11.6C140.7 12.7 141.6 13.6 142.7 14.3C143.8 15 145.1 15.6 146.5 16.3C147.7 16.8 148.8 17.4 149.5 17.8C150 18.1 150.3 18.3 150.4 18.8C150.5 19.3 150.5 20.7 148.4 20.7H140.5L131.3 0H130.3H124H123L110.9 27.2H119L120.8 22.9H126.7L128.7 18H122.8L127.2 7.5L135.4 27.1H143.5H148.5H148.6C150.6 27.1 152.3 26.8 153.8 26.1C155.3 25.5 156.5 24.5 157.3 23.3C158.1 22.1 158.6 20.7 158.6 19C158.6 17.5 158.3 16.3 157.6 15.3C156.9 14.3 156 13.4 154.7 12.7C153.5 11.9 151.9 11.1 149.8 10.1C148.7 9.6 147.9 9.1 147.4 8.7C147 8.4 146.8 7.9 146.7 7.4C146.7 6.8 147 5.8 148.8 5.8H162V27H170.2V6H176.5V27.2H184.7V0H176.5Z" fill="white"/>
<path d="M111 0L102.8 18L94.6 0H86.5L98.6 27.2H107L119.1 0H111Z" fill="white"/>
</g>
<defs>
<clipPath id="clip0">
<rect width="240.4" height="42.6" fill="white"/>
</clipPath>
</defs>
</svg>
