<?xml version="1.0" encoding="utf-8"?>
<!-- Generator: Adobe Illustrator 25.0.0, SVG Export Plug-In . SVG Version: 6.00 Build 0)  -->
<svg version="1.1" id="Layer_1" xmlns="http://www.w3.org/2000/svg" xmlns:xlink="http://www.w3.org/1999/xlink" x="0px" y="0px"
	 viewBox="0 0 733.2 115" style="enable-background:new 0 0 733.2 115;" xml:space="preserve">
<style type="text/css">
	.st0{fill:#6F5D4C;}
</style>
<g>
	<path class="st0" d="M342,59v30.9h-0.9l-7.2-8.3c-3.1,4.2-10.2,9.1-19.4,9.1c-17.8,0-34.7-12.6-34.7-32.6
		c0-18.5,14.3-31.9,32.9-31.9c15.9,0,28.1,9.8,28.6,26.2h-2.4c-0.6-15.3-12.7-23.3-23.5-23.3c-15,0-24.8,11.9-24.8,28.6
		c0,18.5,10.5,30.1,25.6,30.1c5.5,0,12.8-2.8,15.7-7.2V61.5h-14.7V59H342z"/>
	<g>
		<path class="st0" d="M60.8,89L45.5,60.5c-0.9,0.1-1.2,0.1-2,0.1H32.8V89h-9.6V26.6h20.3c15.8,0,25.2,7.7,25.2,16.9
			c0,8.1-7.3,15.2-19.6,16.7c-0.2,0-0.1,0.3,0.2,0.7c0.9,1.4,2.4,2.2,4,2.2h5.2L71.9,89H60.8z M58.5,43.5c0-8.5-4.8-14.7-17.2-14.7
			h-8.5V58h8.5C53.7,58,58.5,51.9,58.5,43.5z"/>
		<path class="st0" d="M132.2,64.4c0,15.3-8.9,25.7-24.1,25.7c-14.2,0-25.9-9.2-25.9-26.1V26.8h9.9v37.5c0,13.5,6.1,21.9,18.2,21.9
			c9.5,0,16.3-4.6,18.3-14.9c0.4-1.9,1.1-5.3,1.1-7.5V26.7h2.4V64.4z"/>
		<path class="st0" d="M194.5,73.1c0,9.7-9.3,15.9-24.5,15.9h-23V26.6h22.9c12.9,0,21.4,5.5,21.4,14.8c0,8.3-5.9,13.4-15.2,15
			c-1.9,0.3-2.7,0.4-2.7,0.4s1.5-0.2,3.5,0.1C188.2,58.3,194.5,63.8,194.5,73.1z M156.6,29v26.5H167c10.3,0,14.4-5.4,14.4-13.9
			c0-8.1-4.8-12.6-14.5-12.6H156.6z M184.7,73.2c0-9.6-5.4-15-17.7-15h-10.4v29l10.1-0.2C178.9,87,184.7,81,184.7,73.2z"/>
		<path class="st0" d="M249.2,26.7l-20,33V89h-9.8L219,60.3l-21.5-33.6h11.9l18.6,30l18.7-30H249.2z"/>
	</g>
	<path class="st0" d="M391,69.3h-27.3l-9.4,20.2h-2.6L381,24.8l30.7,64.8h-11.1L391,69.3z M390,66.8l-12.8-27.4l-12.3,27.4H390z"/>
	<path class="st0" d="M538.4,58.2c0,19-13.7,31.2-37.3,31.2h-19.2V27h19.2C524.9,27,538.4,39.2,538.4,58.2z M527.6,58.2
		c0-18.8-8.2-28.9-26.5-28.9h-9.2V87h9.2C519.4,87,527.6,77.1,527.6,58.2z"/>
	<path class="st0" d="M559.9,29.3v27.3h25.6v2.2h-25.6v28.4h28.3v2.3h-38V26.9h38v2.4H559.9z"/>
	<path class="st0" d="M652.7,27l-0.1,62.8h-1.5l-47-59l0.3,58.1h-2.4V27h11.9l36.6,46.7L650.2,27H652.7z"/>
	<path class="st0" d="M664.4,71.2l2.5-0.1c0,8.8,7.2,16.7,20.3,16.7c9.5,0,15.3-3.6,15.3-11.2c0-17.3-37.2-8-37.2-32.7
		c0-10.5,8.1-18,20.3-18c13.1,0,20.8,7.1,20.8,17.3h-2.2c0-9.6-9.2-14.8-18.2-14.8c-5.7,0-14.1,3.5-14.1,10.7
		c0,16.9,37.6,9.6,37.6,33.5c0,11.4-9.5,18-22,18C673.8,90.5,664.4,82.4,664.4,71.2z"/>
	<path class="st0" d="M459.3,89.6L444,61.1c-0.9,0.1-1.2,0.1-2,0.1h-10.7v28.4h-9.6V27.2h20.3c15.8,0,25.2,7.7,25.2,16.9
		c0,8.1-7.3,15.2-19.6,16.7c-0.2,0-0.1,0.3,0.2,0.7c0.9,1.4,2.4,2.2,4,2.2h5.2l13.5,25.8H459.3z M456.9,44.1
		c0-8.5-4.8-14.7-17.2-14.7h-8.5v29.1h8.5C452.1,58.6,456.9,52.5,456.9,44.1z"/>
</g>
</svg>
