<svg width="252" height="285" viewBox="0 0 252 285" fill="none" xmlns="http://www.w3.org/2000/svg">
<rect x="17.3" y="0.3" width="207.4" height="284.4" rx="103.7" stroke="#6F5D4D" stroke-width="0.6"/>
<path d="M55.5 111C82.2858 111 104 89.5097 104 63C104 36.4903 82.2858 15 55.5 15C28.7142 15 7 36.4903 7 63C7 89.5097 28.7142 111 55.5 111Z" stroke="#676F7C" stroke-width="0.6" stroke-miterlimit="10"/>
<mask id="mask0" mask-type="alpha" maskUnits="userSpaceOnUse" x="-1" y="38" width="254" height="214">
<path d="M148.698 59.78C147.401 61.6579 145.613 62.8204 143.914 64.3853C142.259 65.9503 140.694 67.8729 140.515 70.1085C140.381 71.4946 140.784 72.8806 140.515 74.222C140.202 75.9211 138.861 77.6648 139.621 79.2298" stroke="#6F5D4D" stroke-width="0.6" stroke-miterlimit="10"/>
<path d="M139.711 80.0793C140.381 81.2865 142.527 81.9572 143.287 83.388C144.003 84.8188 144.316 86.5178 143.779 88.038C143.466 88.9323 142.974 89.9607 142.527 90.7655C141.454 92.8222 140.024 94.879 138.593 97.0699C138.19 97.6958 138.011 98.456 138.19 99.1713C138.324 99.7526 138.727 100.244 139.174 100.692C140.336 101.943 141.857 103.33 143.466 102.882C143.869 102.569 143.377 101.943 142.93 101.72C142.483 101.496 141.857 101.228 141.901 100.736C143.332 100.244 144.718 101.496 146.194 101.765C146.373 101.809 146.551 101.809 146.73 101.72C147.177 101.496 146.954 100.692 146.462 100.557C145.97 100.379 145.434 100.647 144.987 100.87C145.523 101.362 146.104 101.809 146.82 101.988C148.251 102.301 149.771 101.183 149.905 99.7079C150.039 98.2324 148.698 96.891 147.267 96.9357" stroke="#6F5D4D" stroke-width="0.6" stroke-miterlimit="10"/>
<path d="M142.751 102.972C143.511 103.866 141.857 105.297 142.438 106.012C142.796 106.459 143.511 106.146 144.048 106.012C145.3 105.789 146.373 106.772 147.356 107.577C149.1 109.008 151.202 109.679 153.393 110.618C152.23 111.467 151.559 110.931 150.665 110.662C149.547 110.305 148.564 109.455 147.401 109.366C146.06 109.231 144.54 110.081 143.377 109.321C142.438 108.695 142.304 107.219 142.304 106.102C143.153 105.923 143.869 107.085 143.779 107.935C143.779 108.248 143.69 108.561 143.824 108.829C144.003 109.142 144.495 109.276 144.584 109.634C144.629 109.813 144.584 110.036 144.674 110.17C144.763 110.305 144.942 110.394 145.121 110.394C147.625 110.975 150.263 110.081 152.811 110.349C153.035 110.394 153.258 110.528 153.482 110.573C153.974 110.618 153.169 111.244 152.901 111.422C150.442 112.853 147.669 114.239 144.897 113.703C144.271 113.569 143.601 113.3 143.377 112.674C143.064 111.825 143.914 110.841 144.584 110.26" stroke="#6F5D4D" stroke-width="0.6" stroke-miterlimit="10"/>
<path d="M145.121 114.373C145.121 114.373 145.881 114.865 145.881 116.385C145.881 117.906 144.361 122.332 147.625 124.031C150.889 125.775 154.689 126.043 162.737 122.511C170.785 118.979 176.33 115.715 181.695 111.02C187.061 106.325 185.764 102.346 185.764 102.346" stroke="#6F5D4D" stroke-width="0.6" stroke-miterlimit="10"/>
<path d="M152.543 87.0097C154.108 87.9039 156.075 87.5909 157.819 87.0991C159.563 86.6072 161.128 85.7577 162.916 85.2212C160.681 87.1885 156.567 88.8428 152.99 89.2005C152.543 89.2453 151.962 89.1558 151.872 88.7534C151.738 88.1722 152.722 87.5909 152.364 87.0991C151.962 87.5909 151.604 88.0827 151.246 88.6193C151.068 88.9323 150.889 89.3794 151.112 89.6477C151.291 89.8265 151.515 89.8265 151.738 89.8265C152.811 89.8265 153.884 89.8265 154.913 89.5135C155.762 89.29 156.567 88.8428 157.417 88.5299C158.758 87.9933 160.323 87.6803 161.575 86.9649C162.335 86.5178 163.05 86.026 163.185 85.1765" stroke="#6F5D4D" stroke-width="0.6" stroke-miterlimit="10"/>
<path d="M147.893 81.9571C147.356 81.1076 146.73 80.7052 146.909 79.4533C147.446 80.2581 147.804 81.1523 147.982 82.0466C148.966 81.1076 147.938 80.3475 147.312 79.811C149.994 79.498 153.124 79.0956 155.807 78.6037C157.104 78.3802 158.49 78.1119 159.742 78.6037C160.323 78.8273 160.815 79.185 161.307 79.5427C162.111 80.1239 162.916 80.7499 163.721 81.3312C158.982 79.9004 152.677 79.0508 147.938 81.823C147.714 81.0182 148.474 80.2581 149.234 79.9004C150.442 79.3191 151.783 79.0956 153.08 78.9614C155.583 78.6484 158.266 78.559 160.412 79.9004C161.351 80.4816 162.335 81.3759 163.408 81.0182" stroke="#6F5D4D" stroke-width="0.6" stroke-miterlimit="10"/>
<path d="M152.498 84.1481C152.945 85.3553 152.811 86.7414 151.917 87.6803" stroke="#6F5D4D" stroke-width="0.6" stroke-miterlimit="10"/>
<path d="M143.645 88.6193C142.662 88.8875 141.901 88.8428 140.337 88.664C140.381 89.1111 140.918 89.3347 141.365 89.4241C141.991 89.5135 142.662 89.5135 143.288 89.3347C142.93 89.3794 142.572 89.4241 142.17 89.5135C141.812 89.5582 141.454 89.6029 141.097 89.5135C140.739 89.4241 140.426 89.1558 140.337 88.7981C140.337 88.7087 140.471 88.664 140.515 88.7534" stroke="#6F5D4D" stroke-width="0.6" stroke-miterlimit="10"/>
<path d="M139.621 78.872C139.308 79.498 138.995 80.2134 139.398 80.7946C139.576 81.0629 139.845 81.197 140.113 81.3759C141.276 82.0019 142.259 82.762 143.377 83.4774C142.706 81.4653 141.276 79.7215 139.308 78.9614C139.129 79.2297 139.263 79.6321 139.532 79.8557C139.755 80.0792 140.113 80.2134 140.381 80.3475C141.41 80.7946 142.259 81.5547 142.885 82.4937" stroke="#6F5D4D" stroke-width="0.6" stroke-miterlimit="10"/>
<path d="M140.605 81.823C140.158 82.8514 140.515 84.2375 140.828 85.3553C141.141 86.4284 141.454 87.6356 141.007 88.664" stroke="#6F5D4D" stroke-width="0.6" stroke-miterlimit="10"/>
<path d="M185.675 102.256C185.854 102.569 186.077 102.838 186.39 103.061C186.792 103.374 187.24 103.643 187.731 103.687C188.536 103.777 189.296 103.33 189.922 102.838C190.548 102.346 191.13 101.72 191.845 101.362" stroke="#6F5D4D" stroke-width="0.6" stroke-miterlimit="10"/>
<path d="M188.223 99.6185C186.882 99.1266 185.317 99.6185 184.199 100.513C181.785 102.391 180.89 105.655 180.756 108.695C180.577 112.272 181.337 116.028 183.528 118.889C184.244 119.828 185.451 120.41 186.569 120.633C187.821 120.946 188.804 120.723 189.967 120.231C191.666 119.471 194.349 117.861 195.556 114.597" stroke="#6F5D4D" stroke-width="0.6" stroke-miterlimit="10"/>
<path d="M188 100.602C186.703 100.289 185.54 101.004 184.467 101.854C183.663 102.48 183.126 103.195 182.768 104.134C182.5 104.85 182.411 105.655 182.232 106.415C181.919 107.845 181.874 108.784 181.829 110.17C181.785 111.467 182.008 113.166 182.366 114.418C183.037 116.788 184.78 119.292 187.24 119.515C189.699 119.784 192.65 117.593 193.768 115.402" stroke="#6F5D4D" stroke-width="0.6" stroke-miterlimit="10"/>
<path d="M159.16 61.8367C160.189 65.2348 163.363 67.8728 165.822 70.4661C167.656 72.3888 169.534 74.3114 171.814 75.6527C173.468 76.5917 175.346 77.2177 177.09 77.9778C182.455 80.3475 186.971 84.5951 189.699 89.7818C192.158 94.3871 193.142 100.021 191.264 104.894C189.386 109.768 184.199 113.479 179.013 112.674C183.931 116.251 190.817 111.065 193.991 106.236C197.166 101.452 197.166 94.7448 193.991 89.9159C188.715 81.9124 177.001 80.5263 170.964 73.1041C167.879 69.3036 165.957 63.3122 161.933 60.54C165.018 61.1213 168.595 62.4627 170.964 64.5194C173.021 66.3079 174.497 69.4378 176.688 71.1368C178.834 72.7912 181.427 73.8195 183.841 75.0715C187.508 76.9941 190.906 79.4533 193.857 82.4043C197.032 85.5788 199.714 89.4688 200.34 93.8953C201.011 98.5006 199.312 103.24 196.227 106.728C193.186 110.215 189.117 113.211 184.602 114.284C186.435 115.894 188.313 116.788 190.727 116.564C193.186 116.296 195.243 114.06 197.702 114.239C198.015 114.239 198.373 114.329 198.641 114.508C199.446 114.955 199.625 116.117 199.312 116.967C198.999 117.816 198.328 118.487 197.657 119.158C199.133 119.962 200.877 118.621 202.039 117.414C204.32 115.044 206.555 112.719 208.836 110.349C207.002 113.613 206.108 117.324 201.279 118.397C203.336 115.178 207.271 113.524 211.071 113.434C214.872 113.39 218.583 114.776 221.936 116.609C224.172 113.658 225.379 110.081 226.273 106.459C226.989 103.508 227.57 100.468 227.525 97.4275C227.436 90.4971 224.351 83.9245 220.55 78.0672C216.794 72.2099 212.323 66.8445 208.925 60.7636C207.36 57.9915 206.063 55.0405 203.962 52.626C201.1 49.362 197.032 47.35 192.918 45.8745C201.95 54.7275 209.372 65.2348 214.648 76.6811C217.107 82.0466 219.164 87.8591 218.851 93.7611C218.449 100.826 217.823 109.097 210.4 112.808C213.799 107.443 214.603 100.87 214.648 94.5659C214.738 88.7534 214.246 82.8961 212.457 77.3518C209.774 68.9459 204.007 61.5684 196.495 56.9631C194.215 55.5323 191.666 54.3698 189.028 54.1015C188.313 54.0121 187.731 54.7275 188 55.3982C190.504 62.1497 194.304 68.3647 198.283 74.4008C201.234 78.872 204.32 83.2985 206.063 88.351C208.97 96.7121 207.718 106.415 202.799 113.792C201.547 115.67 199.983 117.459 197.881 118.174C197.479 116.028 198.686 113.971 199.491 111.959C201.145 107.845 201.145 103.106 199.491 99.0372C197.836 94.9236 194.528 91.5255 190.504 89.737C190.146 89.6029 189.788 89.4241 189.386 89.4688C188.849 89.5582 188.447 90.0053 188.044 90.4077C186.524 91.9279 184.244 92.5986 182.142 92.2409C181.919 89.1558 183.439 86.0259 182.545 83.0302C181.651 80.0792 178.789 78.2907 176.509 76.234C172.172 72.344 169.489 66.6656 164.66 63.4016C162.916 62.1944 159.25 60.5848 159.652 58.528C163.229 62.5521 170.92 65.8608 176.24 65.1007C177.805 64.8771 179.191 63.3122 179.504 61.7026C179.594 61.166 180.22 60.8977 180.667 61.2107C186.345 65.5478 191.666 70.3767 196.584 75.608C199.938 79.2297 202.486 83.5221 204.364 88.0827C206.466 93.1799 212.725 97.6064 207.047 103.911C204.454 94.7895 206.913 86.7413 203.336 79.4533C200.43 73.5065 195.645 68.7224 190.772 64.2959C189.967 63.5805 189.117 62.8204 188.67 61.8367C188.179 60.853 188.134 59.6011 188.805 58.7516C189.252 58.215 189.967 57.902 190.682 57.7679C192.963 57.3655 195.154 58.4833 197.3 59.3328C199.446 60.1376 202.039 60.6742 203.872 59.2881C205.572 58.0362 205.348 55.0405 203.425 51.9553" stroke="#6F5D4D" stroke-width="0.6" stroke-miterlimit="10"/>
<path d="M153.527 56.516C153.124 56.829 155.047 58.1703 155.315 58.3492C161.441 61.792 169.712 60.9425 174.944 56.203C176.643 54.6381 178.118 52.5813 178.163 50.301C178.208 47.8865 176.688 45.6509 174.854 44.086C171.814 41.448 167.656 40.0619 163.632 40.2855C165.912 41.5821 168.237 42.9682 170.025 44.8908C171.814 46.8135 173.021 49.4962 172.619 52.0895C172.082 55.3535 169.086 57.8126 165.822 58.528C162.603 59.2434 159.205 58.528 156.075 57.4549C159.697 57.0972 163.184 55.1299 165.331 52.1789C165.867 51.4188 166.359 50.5246 166.359 49.5856C166.359 48.4678 165.688 47.4841 164.884 46.724C162.737 44.6226 159.607 43.5942 156.656 44.086C159.25 45.8298 161.083 49.0491 160.412 52.1342C159.742 55.2193 156.12 57.4996 153.258 56.1583C155.405 55.6217 156.254 52.626 155.092 50.7481C153.929 48.8702 151.47 48.1101 149.279 48.4678C147.088 48.8255 145.165 50.1222 143.466 51.5082C146.999 50.5246 150.889 49.9433 154.331 51.2847C157.774 52.626 160.412 56.5607 159.205 60.0482C159.071 60.4954 158.847 60.9872 158.982 61.479C159.16 62.1944 160.01 62.4627 160.725 62.5968C164.258 63.3122 167.879 63.7146 171.456 63.8488C173.915 63.9382 176.419 63.8935 178.744 63.0439C181.785 61.9261 184.244 59.3776 185.272 56.2924C186.301 53.2073 185.853 49.7197 184.065 46.9923C182.858 45.1591 181.74 43.4601 179.951 42.2081C176.419 39.7042 171.501 37.871 167.209 38.5417C170.07 39.5254 173.021 40.2408 175.793 41.4033C178.565 42.5658 180.89 44.3543 182.411 46.9923C183.931 49.5856 184.333 53.1626 182.411 55.4876C185.585 55.0405 187.731 51.1058 186.345 48.1995C185.764 46.9029 184.602 45.7404 184.87 44.3543C185.004 43.46 185.719 42.7894 186.479 42.2975C188.804 40.822 191.845 40.822 194.438 41.8504C196.987 42.8341 199.133 44.712 201.056 46.6793C209.283 55.3088 213.754 67.1127 222.607 75.1162C224.753 77.0388 227.167 78.7826 228.643 81.2865C230.521 84.4163 230.655 88.3063 229.85 91.8385C229.045 95.3708 228.643 100.021 226.989 103.195" stroke="#6F5D4D" stroke-width="0.6" stroke-miterlimit="10"/>
<path d="M148.877 51.9106C146.686 52.1789 144.54 52.4919 142.349 52.7602C140.918 52.939 139.442 53.1626 138.101 53.7886C135.195 55.1746 133.63 58.3492 132.557 61.3896C135.195 60.093 138.235 60.093 141.186 60.1824C144.137 60.2718 147.133 60.3612 149.86 59.2881C152.588 58.215 154.913 55.577 154.644 52.626C153.527 54.1015 151.649 54.8616 149.816 55.1746C147.982 55.4876 146.104 55.4876 144.271 55.7559C139.934 56.3819 135.865 58.7516 133.138 62.1497C132.914 60.8978 134.435 60.0482 135.642 59.6905C139.129 58.6175 142.617 57.5891 146.06 56.516C147.401 56.1136 148.742 55.7112 149.86 54.8169C150.978 53.9674 151.738 52.5813 151.515 51.1953C153.214 51.3294 153.974 53.6097 153.214 55.1299C152.454 56.6501 150.844 57.4549 149.279 58.0809C145.836 59.467 142.214 60.3165 138.638 61.166C136.983 61.5685 135.284 62.0156 133.809 62.8651C132.333 63.7146 131.081 65.1007 130.768 66.7998C130.411 68.6777 131.305 70.5556 132.333 72.2099C133.362 73.8643 134.613 75.3845 135.105 77.2177C135.776 79.7663 135.016 82.449 133.898 84.8187C132.825 87.1885 131.394 89.4688 130.768 92.0174C130.276 93.94 130.276 95.9968 130.768 97.9194C131.394 100.379 132.78 102.614 133.272 105.073C133.406 105.923 133.451 106.862 133.093 107.622C132.825 108.158 132.423 108.561 131.975 108.963C129.74 111.065 127.102 112.764 124.24 113.882C128.488 114.686 133.093 112.898 135.687 109.455C136 109.008 136.715 109.142 136.894 109.634C137.117 110.439 136.938 111.378 136.447 112.093C135.731 113.121 134.479 113.658 133.272 114.06C132.065 114.463 130.813 114.686 129.695 115.268C132.333 115.312 135.061 116.609 137.52 115.625C139.129 114.999 140.202 113.524 141.231 112.093C141.276 113.882 140.694 115.67 139.576 117.011C138.459 118.353 136.804 119.336 135.061 119.605C135.955 120.275 136.67 120.633 137.788 120.767" stroke="#6F5D4D" stroke-width="0.6" stroke-miterlimit="10"/>
<path d="M163.676 122.377C163.676 122.377 168.639 131.766 169.221 133.868C169.802 135.969 170.562 142.855 169.981 145.135C169.399 147.416 167.7 151.842 167.7 151.842" stroke="#6F5D4D" stroke-width="0.6" stroke-miterlimit="10"/>
<path d="M167.7 130.515C165.375 132.437 162.693 134.717 161.396 137.445C160.546 139.189 160.233 141.156 159.876 143.079C159.25 146.79 158.624 150.546 157.998 154.257C157.73 155.822 157.461 157.431 157.998 158.907C158.803 161.366 161.754 162.797 164.258 162.081C165.062 161.858 165.822 161.411 166.583 161.008C174.228 156.582 181.159 150.814 186.927 144.107C188.76 142.006 190.459 139.77 191.8 137.311C194.081 133.108 195.243 128.279 197.926 124.3C202.084 118.129 209.998 114.686 217.376 115.894C224.753 117.101 231.147 122.824 233.159 130.023C230.834 128.86 227.928 129.173 225.647 130.425C223.367 131.677 221.578 133.734 220.148 135.925C214.961 143.973 214.022 153.944 211.205 163.11C209.64 168.162 207.494 173.215 207.718 178.491C207.807 180.905 207.539 182.649 207.673 185.689C213.933 179.474 220.327 173.125 228.196 169.146C231.281 167.581 234.813 166.418 238.122 167.402C239.821 167.939 241.296 168.967 242.683 170.04C245.634 172.276 248.674 175.182 248.629 178.893C249.792 176.344 250.731 173.662 251.446 170.89C251.804 169.503 252.072 168.073 251.983 166.642C251.893 165.256 251.401 163.914 250.954 162.573C249.792 159.22 248.629 155.866 247.422 152.468C246.125 148.712 244.829 144.957 243.13 141.38C239.776 134.315 235.037 128.011 230.297 121.796C229.18 120.32 228.017 118.8 226.452 117.772C224.887 116.743 222.875 116.296 221.176 117.056C221.265 124.926 227.123 131.319 230.297 138.518C234.187 147.371 234.008 157.387 233.695 167.044" stroke="#6F5D4D" stroke-width="0.6" stroke-miterlimit="10"/>
<path d="M205.929 204.111C205.929 204.111 210.758 214.037 200.966 219.089C198.149 220.565 175.793 222.219 168.997 223.292C162.201 224.365 132.557 226.154 126.789 223.56C121.021 220.922 104.254 211.756 102.152 212.025C100.051 212.293 87.9788 213.858 85.6537 214.663C83.284 215.467 78.0527 221.459 77.5161 222.8C76.9796 224.097 76.2195 229.865 76.2195 229.865C76.2195 229.865 78.5892 230.67 79.3493 229.328C80.1094 227.987 80.1541 234.068 80.9143 233.799C81.7191 233.531 84.8489 228.3 86.1456 227.003C87.4422 225.707 91.9134 225.438 93.2101 226.198C94.5067 227.003 100.006 232.234 111.274 233.531C122.541 234.828 125.939 235.901 125.939 235.901L174.497 243.725C174.497 243.725 203.604 250.298 208.299 249.493C212.994 248.689 220.282 243.636 224.172 246.364" stroke="#6F5D4D" stroke-width="0.6" stroke-miterlimit="10"/>
<path d="M111.855 182.962L108.233 201.651C107.518 205.318 107.92 209.163 109.619 212.472C110.245 213.724 111.05 214.841 111.989 215.423C115.119 217.435 128.13 221.101 130.589 212.248" stroke="#6F5D4D" stroke-width="0.6" stroke-miterlimit="10"/>
<path d="M224.44 246.095C229.224 234.738 205.616 226.78 201.682 219.179C201.503 218.866 201.771 218.508 202.129 218.553L212.413 219.67C213.441 219.76 214.514 219.894 215.498 219.626C216.392 219.402 217.152 218.866 217.867 218.329C224.798 213.053 227.838 204.111 229.403 195.571C231.415 184.75 231.728 173.617 230.342 162.662C229.806 158.325 235.305 156.09 237.988 159.533C238.882 160.65 239.732 161.768 240.536 162.931C241.744 164.63 242.906 166.374 243.577 168.341C244.561 171.337 244.158 174.601 243.935 177.73C243.443 185.153 243.979 192.62 245.544 199.908C246.349 203.663 247.422 207.419 247.377 211.265C247.288 215.11 245.812 219.179 242.593 221.235C240.492 222.577 237.541 223.247 236.602 225.572C236.021 227.003 236.468 228.658 236.646 230.178C237.541 237.689 231.549 245.335 224.038 246.274C222.115 241.222 219.075 238.002 214.246 235.543C222.83 234.738 222.428 240.953 224.306 246.274C218.851 249.806 211.787 253.204 206.198 249.359C205.75 243.1 202.352 237.287 198.462 232.324C194.528 227.406 190.146 225.259 185.183 221.414C189.609 218.508 195.869 219.581 199.893 216.138C201.011 215.199 201.771 213.858 202.799 212.829C202.978 212.651 203.157 212.516 203.381 212.338C204.722 211.354 205.348 209.744 204.99 208.179C204.901 207.732 204.856 207.24 204.901 206.793C204.946 206.212 205.035 205.854 205.214 205.541C206.421 203.753 207.047 201.651 206.734 199.461C206.198 195.571 207.718 191.055 209.149 187.209C213.262 176.389 216.347 165.166 218.359 153.765" stroke="#6F5D4D" stroke-width="0.6" stroke-miterlimit="10"/>
<path d="M148.832 241.848C148.832 241.848 72.8212 247.526 72.0164 246.498C71.2116 245.469 71.2563 240.059 71.2563 240.059C71.2563 240.059 147.803 234.112 148.832 235.677C149.86 237.242 148.832 240.283 148.832 241.848Z" stroke="#6F5D4D" stroke-width="0.6" stroke-miterlimit="10"/>
<path d="M148.832 235.633C148.832 235.633 101.929 229.462 99.1121 229.462C96.2952 229.462 68.2607 231.564 68.2607 231.564" stroke="#6F5D4D" stroke-width="0.6" stroke-miterlimit="10"/>
<path d="M41.8359 243.1C41.8359 243.1 72.3295 247.705 72.8661 246.185C73.4026 244.62 43.4455 162.171 41.657 162.171C39.8685 162.171 4.54599 162.171 0.1642 164.227C-2.29496 165.39 23.638 236.124 26.4549 238.718C29.2718 241.311 41.8359 243.1 41.8359 243.1Z" stroke="#6F5D4D" stroke-width="0.6" stroke-miterlimit="10"/>
<path d="M27.8858 198.343C26.2762 197.001 25.1584 195.079 24.8007 192.977C27.2151 194.006 29.1824 196.062 30.1661 198.522C31.418 198.611 32.5358 199.55 33.1618 200.668C33.7878 201.786 34.0113 203.038 34.2349 204.289C34.5479 206.257 34.7714 208.224 34.9503 210.191C34.995 210.862 35.0397 211.578 34.7714 212.203C34.5032 212.829 33.8325 213.321 33.1618 213.142C32.8488 213.053 32.6253 212.874 32.4017 212.695C30.7474 211.399 29.1377 210.102 27.4834 208.761C27.2151 208.537 26.9021 208.224 27.0363 207.911C27.1257 207.732 27.3045 207.598 27.5281 207.509C28.5118 207.106 29.7637 206.704 30.032 205.676C30.345 204.647 29.4954 203.619 28.5565 203.172C27.6175 202.725 26.4997 202.635 25.516 202.277C24.7112 201.964 23.9064 201.294 23.9958 200.444C24.0853 199.595 25.0242 199.103 25.8737 199.013C26.5444 198.924 27.2598 199.013 27.8411 199.371C28.4223 199.729 28.8247 200.444 28.6906 201.115" stroke="#6F5D4D" stroke-width="0.6" stroke-miterlimit="10"/>
<path d="M137.877 120.901C137.877 120.901 141.857 121.796 145.344 120.41" stroke="#6F5D4D" stroke-width="0.6" stroke-miterlimit="10"/>
<path d="M188.044 99.4396C188.447 99.6184 188.804 100.021 188.76 100.468C188.715 100.736 188.581 100.96 188.313 101.049C188.089 101.139 187.776 101.139 187.597 101.004C187.553 100.96 187.508 100.915 187.508 100.87C187.508 100.781 187.642 100.736 187.731 100.736C188 100.692 188.268 100.647 188.447 100.423C188.626 100.2 188.581 99.842 188.313 99.7526C188.223 99.7079 188.134 99.7526 188 99.7526C187.955 99.7526 187.91 99.7526 187.91 99.7079C187.91 99.6631 187.955 99.6631 187.955 99.6631" stroke="#6F5D4D" stroke-width="0.6" stroke-miterlimit="10"/>
<path d="M188.536 93.7611C188.626 94.8342 189.878 95.5496 189.967 96.6674C190.012 96.891 189.967 97.1593 189.788 97.2934C189.699 97.3828 189.52 97.4275 189.386 97.4722C189.162 97.5169 188.939 97.5617 188.67 97.517C188.447 97.4722 188.223 97.2934 188.179 97.0698C188.134 96.9804 188.179 96.8463 188.268 96.7568C188.313 96.7121 188.402 96.6674 188.447 96.6674C189.028 96.4439 189.386 95.6838 189.073 95.1472C188.939 94.9236 188.715 94.7001 188.715 94.4318C188.715 94.2083 188.894 94.0294 189.028 93.8953C189.565 93.4034 190.101 92.8669 190.593 92.3751" stroke="#6F5D4D" stroke-width="0.6" stroke-miterlimit="10"/>
<path d="M152.454 131.543C157.819 129.128 165.957 126.848 165.957 126.848" stroke="#6F5D4D" stroke-width="0.6" stroke-miterlimit="10"/>
<path d="M150.039 132.84C150.173 132.75 150.531 132.482 150.665 132.437" stroke="#6F5D4D" stroke-width="0.6" stroke-miterlimit="10"/>
<path d="M128.175 176.613C132.959 159.309 134.032 160.516 142.304 144.643" stroke="#6F5D4D" stroke-width="0.6" stroke-miterlimit="10"/>
<path d="M135.105 130.157C135.105 130.157 140.828 130.649 141.544 131.006C142.259 131.364 146.06 133.913 146.283 134.539C146.507 135.165 149.234 143.079 150.039 141.692C150.442 141.067 150.665 134.27 150.173 133.197C149.681 132.124 146.417 128.189 145.657 127.832C144.987 127.474 138.414 126.446 137.386 126.267C137.341 126.267 137.341 126.222 137.386 126.222L141.991 125.06L146.239 127.027C146.239 127.027 147.222 127.653 148.564 129.71C149.905 131.766 152.454 133.734 152.454 132.884C152.454 132.035 151.112 126.58 150.486 125.82C149.86 125.104 143.288 120.275 142.08 120.231C141.231 120.186 133.943 122.779 132.244 123.763C130.545 124.747 128.577 126.088 127.862 126.803C127.147 127.519 125.313 131.409 124.956 132.884C124.598 134.36 118.249 151.261 118.249 151.261L115.119 164.004L111.766 183.23" stroke="#6F5D4D" stroke-width="0.6" stroke-miterlimit="10"/>
<path d="M134.122 133.465C134.122 133.465 141.678 135.656 142.17 136.014C142.662 136.372 145.344 141.245 145.344 141.245C145.344 141.245 145.97 146.208 146.418 145.985C147.133 145.582 148.743 143.079 148.743 142.095C148.743 141.111 147.446 137.534 147.446 137.534" stroke="#6F5D4D" stroke-width="0.6" stroke-miterlimit="10"/>
<path d="M146.06 145.985C146.06 145.985 143.869 147.46 143.243 146.477C142.617 145.493 141.678 143.079 141.678 143.079L139.264 140.754C138.861 140.351 138.325 140.128 137.743 140.083L135.418 139.904C134.435 139.815 133.496 140.262 132.87 141.022L132.378 141.603C132.065 142.005 131.931 142.497 131.931 142.989C132.02 144.822 132.289 149.383 131.886 150.635C131.439 152.021 131.037 153.854 129.561 154.883C129.069 155.24 128.756 155.777 128.622 156.358C128.13 158.773 127.013 164.362 127.415 166.91C127.907 170.174 128.13 178.446 128.13 178.446C128.13 178.446 131.037 210.594 130.545 212.248" stroke="#6F5D4D" stroke-width="0.6" stroke-miterlimit="10"/>
<path d="M132.109 150.411C132.959 149.964 134.166 149.249 134.926 148.623C137.028 146.924 138.682 143.973 140.202 141.737" stroke="#6F5D4D" stroke-width="0.6" stroke-miterlimit="10"/>
<path d="M207.584 185.555C206.868 188.64 206.108 191.77 206.063 194.945C206.019 198.119 204.543 201.025 205.795 204.2" stroke="#6F5D4D" stroke-width="0.6" stroke-miterlimit="10"/>
<path d="M248.763 178.625C247.959 183.006 247.735 187.478 248.182 191.949C248.719 197.761 250.284 203.663 248.853 209.297C248.272 211.488 247.243 214.528 246.26 216.541" stroke="#6F5D4D" stroke-width="0.6" stroke-miterlimit="10"/>
<path d="M145.479 60.1824C140.515 61.166 136 66.3974 135.731 71.4498C135.508 76.2787 138.235 81.1523 136.715 85.713C135.463 89.4688 131.439 92.1962 131.305 96.1756C131.26 97.9194 132.646 99.9314 133.54 101.407C134.435 102.927 134.256 105.968 133.362 107.443" stroke="#6F5D4D" stroke-width="0.6" stroke-miterlimit="10"/>
<path d="M233.74 167.134C233.651 171.65 234.143 175.674 235.484 179.787C237.451 186.047 238.748 192.664 237.898 199.192C237.585 201.562 237.004 203.842 236.468 206.167C235.842 208.761 235.976 211.801 234.321 213.858C222.562 228.657 233.964 232.995 224.619 245.872" stroke="#6F5D4D" stroke-width="0.6" stroke-miterlimit="10"/>
<path d="M110.245 190.697C106.356 192.709 109.172 196.912 110.067 197.761C114.627 202.054 114.717 202.903 119.054 207.464C116.103 209.744 112.123 208.179 110.29 205.72C107.563 202.099 109.843 196.778 108.681 192.396C107.205 196.152 106.043 200.042 105.193 203.976C104.969 205.05 104.791 206.212 105.238 207.24C105.819 208.537 107.384 209.252 107.697 210.639C107.831 211.13 107.742 211.712 108.01 212.159C108.368 212.74 109.083 212.919 109.709 213.098C113.509 214.171 116.55 216.988 119.233 219.894C120.306 221.056 121.513 222.353 123.078 222.577C124.151 222.756 125.269 222.353 126.342 222.219C128.264 221.906 130.276 222.264 132.02 223.203C132.78 223.605 133.585 224.186 134.435 224.097C135.016 224.052 135.553 223.739 136.044 223.426C137.117 222.756 138.191 222.085 139.264 221.414C140.784 220.475 142.393 219.402 143.064 217.748C144.271 214.931 142.483 211.846 140.963 209.208C138.056 204.155 134.122 197.001 129.516 192.843C129.025 197.359 132.78 203.753 128.89 206.078C127.683 206.793 126.878 206.033 125.537 206.346C121.602 207.24 117.355 207.911 113.286 208.001C114.94 211.22 118.785 213.008 122.407 213.366C126.029 213.724 129.695 212.74 133.004 211.22C135.329 210.147 137.788 208.403 137.922 205.854C140.203 208.09 142.17 211.354 141.007 214.35C139.979 217.077 136.894 218.329 135.15 220.654C134.614 221.369 134.211 222.398 134.792 223.069C135.016 223.381 135.374 223.516 135.731 223.65C136.849 224.097 138.101 224.276 139.308 224.276C140.65 224.276 141.991 223.963 143.064 223.158C144.271 222.264 142.662 218.329 143.332 216.943" stroke="#6F5D4D" stroke-width="0.6" stroke-miterlimit="10"/>
<path d="M191.308 219.134C196.763 223.113 200.653 224.41 205.884 228.345C209.283 230.893 212.412 233.755 215.274 236.929C218.091 240.014 220.774 243.636 221.131 247.839C221.176 248.197 221.176 248.554 221.087 248.867C220.684 250.209 218.896 250.432 217.51 250.388C217.197 250.388 216.884 250.343 216.66 250.164C216.437 249.941 216.347 249.628 216.302 249.315C215.498 244.843 215.229 240.238 214.201 235.767C213.173 231.296 211.295 226.869 207.807 223.918C205.661 222.085 203.694 220.744 201.771 218.687" stroke="#6F5D4D" stroke-width="0.6" stroke-miterlimit="10"/>
<path d="M28.5116 201.025C28.601 201.249 28.4669 201.562 28.288 201.696C28.1092 201.83 27.8409 201.875 27.5727 201.875C27.1702 201.83 26.7231 201.607 26.5443 201.249C26.3654 200.891 26.4996 200.355 26.902 200.176C27.3044 199.997 27.7515 200.221 28.0645 200.534C28.3775 200.847 28.5563 201.249 28.8693 201.562C29.0482 201.741 29.3164 201.875 29.54 201.83C29.853 201.741 29.9871 201.383 29.8977 201.07C29.853 200.757 29.6294 200.534 29.4059 200.265C28.7799 199.505 28.6905 198.879 27.7068 198.253" stroke="#6F5D4D" stroke-width="0.6" stroke-miterlimit="10"/>
<path d="M41.5227 162.394C39.6448 165.301 35.9785 166.552 32.5356 166.821C29.0928 167.089 25.6052 166.597 22.1624 167.089C19.0326 167.536 16.0369 168.743 12.9517 169.503C9.8666 170.264 6.46848 170.532 3.65162 169.101C3.07036 168.788 2.44439 168.386 2.22083 167.76C1.90785 166.91 2.35497 165.971 3.07036 165.435C3.78575 164.898 4.68 164.675 5.52952 164.496C8.65937 163.825 11.8339 163.378 15.0085 163.154C17.5571 162.975 20.1504 162.931 22.6543 163.512C27.7067 164.764 32.625 168.609 37.5881 167.089C38.1693 166.91 38.7506 166.642 39.3766 166.731C40.7179 166.865 41.3886 168.296 41.8804 169.548C45.2786 178.669 48.8108 187.746 52.5219 196.733C55.0258 202.769 57.6191 208.761 60.5254 214.618C64.1024 221.772 68.2606 228.792 69.8255 236.661C70.2726 238.852 70.4515 241.132 69.6914 243.234C68.9313 245.335 66.9639 247.079 64.7283 246.989C63.1634 246.945 61.5538 245.603 61.822 244.083C62.0903 242.295 64.3706 241.669 66.2038 241.669C67.2322 241.669 68.6183 242.295 68.2606 243.278C68.1711 243.591 67.9029 243.815 67.6346 243.994C63.8341 246.677 58.6475 246.274 54.221 244.843C49.7945 243.413 45.6363 241.132 41.0756 240.327C37.8564 239.791 34.4135 239.925 31.552 238.36C29.6293 237.287 28.1538 235.543 26.7678 233.799C23.2355 229.462 20.4634 224.678 18.0936 219.179" stroke="#6F5D4D" stroke-width="0.6" stroke-miterlimit="10"/>
<path d="M115.119 164.406C113.643 165.971 112.168 168.073 111.631 170.174C111.363 171.113 111.229 172.186 111.721 173.08C112.392 174.332 114.046 174.69 115.477 174.556C116.773 174.422 118.07 174.019 119.277 173.528C122.72 172.052 125.671 169.548 127.728 166.418C128.398 165.39 128.98 164.272 128.98 163.02C128.98 162.752 128.935 162.439 128.756 162.26C128.577 162.081 127.907 162.037 127.728 162.26" stroke="#6F5D4D" stroke-width="0.6" stroke-miterlimit="10"/>
<path d="M114.806 165.926C113.867 167 113.018 168.073 112.705 169.459C112.57 169.906 112.526 170.398 112.66 170.845C112.928 171.65 113.822 172.052 114.672 172.231C116.818 172.633 119.054 172.007 120.932 170.89C122.809 169.772 124.374 168.207 125.805 166.552C126.61 165.658 127.415 164.675 127.773 163.512" stroke="#6F5D4D" stroke-width="0.6" stroke-miterlimit="10"/>
</mask>
<g mask="url(#mask0)">
<rect x="16.6631" y="-6.10352e-05" width="208.358" height="285.71" rx="104.179" fill="#6F5D4D"/>
</g>
</svg>
